# xmcd
#
# Track frame offsets:
#	150
#	24697
#	40526
#	55120
#	82475
#	99205
#	121214
#	135860
#	157918
#	177326
#	195967
#	220067
#	231483
#	250736
#	268797
#
# Disc length: 3889 seconds
#
# Revision: 0
# Processed by: cddbd v1.5.1PL0 Copyright (c) Steve Scherf et al.
# Submitted via: dBpowerAMP V4.0
#
DISCID=c00f2f0f
DTITLE=Dennis Gruenling - Up All Night
DYEAR=2000
DGENRE=Jump Time
TTITLE0=Dennis Gruenling - (01) Stockyard Blues
TTITLE1=Dennis Gruenling - (02) True Love
TTITLE2=Dennis Gruenling - (03) You Got It
TTITLE3=Dennis Gruenling - (04) Dirty Deal
TTITLE4=Dennis Gruenling - (05) Roller Coaster
TTITLE5=Dennis Gruenling - (06) I Want A Woman
TTITLE6=Dennis Gruenling - (07) It's You I'm Thinking Of
TTITLE7=Dennis Gruenling - (08) I Gotta Have Her
TTITLE8=Dennis Gruenling - (09) Hoo Done Doo Dat
TTITLE9=Dennis Gruenling - (10) Left For Dead
TTITLE10=Dennis Gruenling - (11) Up All Night
TTITLE11=Dennis Gruenling - (12) On Fire
TTITLE12=Dennis Gruenling - (13) Got To Get To My Baby
TTITLE13=Dennis Gruenling - (14) Goin' To Chicago
TTITLE14=Dennis Gruenling - (15) Bluesin'
EXTD=
EXTT0=
EXTT1=
EXTT2=
EXTT3=
EXTT4=
EXTT5=
EXTT6=
EXTT7=
EXTT8=
EXTT9=
EXTT10=
EXTT11=
EXTT12=
EXTT13=
EXTT14=
PLAYORDER=
